<svg xmlns="http://www.w3.org/2000/svg" viewBox="0 0 1064.74 325.26"><defs><style>.cls-1{fill-rule:evenodd;}</style></defs><title>44Asset 1</title><g id="Layer_2" data-name="Layer 2"><g id="Layer_1-2" data-name="Layer 1"><path d="M116.84,127.05V277.89H106V205.65H10.83v72.24H0V127.05H10.83v68.83H106V127.05Z"/><path d="M198.42,280a51.4,51.4,0,0,1-21.67-4.57,53.34,53.34,0,0,1-17.31-12.53,59.52,59.52,0,0,1-15.62-40.68,58.51,58.51,0,0,1,15.51-40A52.91,52.91,0,0,1,176.43,170a53.5,53.5,0,0,1,43,.11,54,54,0,0,1,17.21,12.32,56.45,56.45,0,0,1,11.26,18.06,59.2,59.2,0,0,1,4,21.78v2.65a5.72,5.72,0,0,1-.22,2H154.87a49.12,49.12,0,0,0,4.46,17.74A50.46,50.46,0,0,0,169,258.77a43.4,43.4,0,0,0,13.49,9.34,39.71,39.71,0,0,0,16.35,3.4,40.46,40.46,0,0,0,11.26-1.59,45.45,45.45,0,0,0,10.31-4.36,37.21,37.21,0,0,0,8.5-6.69,31.7,31.7,0,0,0,5.84-8.6l9.34,2.55a35.41,35.41,0,0,1-6.9,10.94,46.72,46.72,0,0,1-10.62,8.6A54.17,54.17,0,0,1,213.29,278,54.83,54.83,0,0,1,198.42,280Zm43.34-61.61a50.15,50.15,0,0,0-4.36-17.84,47.69,47.69,0,0,0-9.56-13.92,42.79,42.79,0,0,0-13.49-9.13,42.18,42.18,0,0,0-32.71,0,42.79,42.79,0,0,0-13.49,9.13,44.26,44.26,0,0,0-9.35,14,53.64,53.64,0,0,0-4.14,17.74Z"/><path d="M276.17,122.8H287V256q0,6.17,3.5,9.78t9.67,3.61a36.82,36.82,0,0,0,5.63-.53,30.56,30.56,0,0,0,6.05-1.6l2.13,8.5a44.12,44.12,0,0,1-8.93,2.44,52.42,52.42,0,0,1-9.13,1q-8.93,0-14.34-5.42t-5.42-14.55Z"/><path d="M377.29,280a51.4,51.4,0,0,1-21.67-4.57,53.34,53.34,0,0,1-17.31-12.53,59.65,59.65,0,0,1-15.62-40.68,58.64,58.64,0,0,1,15.51-40A53,53,0,0,1,355.3,170a53.5,53.5,0,0,1,43,.11,54,54,0,0,1,17.21,12.32,56.45,56.45,0,0,1,11.26,18.06,59.2,59.2,0,0,1,4,21.78v2.65a5.72,5.72,0,0,1-.22,2H333.74a49.33,49.33,0,0,0,4.46,17.74,50.46,50.46,0,0,0,9.67,14.13,43.4,43.4,0,0,0,13.49,9.34,39.76,39.76,0,0,0,16.36,3.4A40.57,40.57,0,0,0,389,269.92a45.57,45.57,0,0,0,10.3-4.36,37,37,0,0,0,8.5-6.69,31.7,31.7,0,0,0,5.84-8.6l9.35,2.55a35.26,35.26,0,0,1-6.91,10.94,46.29,46.29,0,0,1-10.62,8.6A54,54,0,0,1,392.16,278,54.78,54.78,0,0,1,377.29,280Zm43.34-61.61a49.94,49.94,0,0,0-4.36-17.84,47.5,47.5,0,0,0-9.56-13.92,42.79,42.79,0,0,0-13.49-9.13,42.18,42.18,0,0,0-32.71,0A42.79,42.79,0,0,0,347,186.64a44.26,44.26,0,0,0-9.35,14,53.64,53.64,0,0,0-4.14,17.74Z"/><path d="M544.48,277.89H533.86V216.28q0-21.47-6.05-31.23t-19.23-9.77a40.19,40.19,0,0,0-13.92,2.54,47,47,0,0,0-12.85,7.23A52.52,52.52,0,0,0,471.4,196a45.06,45.06,0,0,0-6.58,13.49v68.41H454.19V167.42h10v26.34a51.73,51.73,0,0,1,8.39-11.58,53,53,0,0,1,11.26-8.92,56.7,56.7,0,0,1,13.28-5.74,52.08,52.08,0,0,1,14.44-2q18.06,0,25.5,12.64t7.43,36.22Z"/><path d="M623.51,280a51.37,51.37,0,0,1-21.67-4.57,53.49,53.49,0,0,1-17.32-12.53,59.58,59.58,0,0,1-15.61-40.68,58.43,58.43,0,0,1,4.14-22,57.8,57.8,0,0,1,11.37-18.06A52.91,52.91,0,0,1,601.52,170a53.5,53.5,0,0,1,43,.11,54.06,54.06,0,0,1,17.21,12.32A56.63,56.63,0,0,1,673,200.45a59.2,59.2,0,0,1,4,21.78v2.65a5.81,5.81,0,0,1-.21,2H580a49.12,49.12,0,0,0,4.46,17.74,50.46,50.46,0,0,0,9.67,14.13,43.47,43.47,0,0,0,13.48,9.34,39.76,39.76,0,0,0,16.36,3.4,40.46,40.46,0,0,0,11.26-1.59,45.64,45.64,0,0,0,10.31-4.36,37.16,37.16,0,0,0,8.49-6.69,31.51,31.51,0,0,0,5.85-8.6l9.34,2.55a35.41,35.41,0,0,1-6.9,10.94,46.72,46.72,0,0,1-10.62,8.6A54.17,54.17,0,0,1,638.38,278,54.83,54.83,0,0,1,623.51,280Zm43.34-61.61a50.15,50.15,0,0,0-4.36-17.84,47.88,47.88,0,0,0-9.56-13.92,42.9,42.9,0,0,0-13.49-9.13,42.18,42.18,0,0,0-32.71,0,43,43,0,0,0-13.5,9.13,44.23,44.23,0,0,0-9.34,14,53.64,53.64,0,0,0-4.14,17.74Z"/><path d="M752.67,177a44.27,44.27,0,0,0-26,8.81q-11.16,8.4-15.62,23.05v69H700.41V167.42h10.2v27.19a53.27,53.27,0,0,1,15.19-19,39,39,0,0,1,20.29-8.39c1.41-.14,2.68-.21,3.82-.21h2.76Z"/><path d="M780.29,315.27a17.5,17.5,0,0,0,3.18.22,33.93,33.93,0,0,0,3.93-.22,10.52,10.52,0,0,0,3.51-1.06,8.07,8.07,0,0,0,2.34-1.8,27.75,27.75,0,0,0,3-4.78q1.9-3.61,4.89-10.62t8.07-19.12L759.89,167.42h11.05l44,100.06,41-100.06h10.41L805.78,312.73a18.77,18.77,0,0,1-7.54,9.24q-5.21,3.28-14.13,3.29h-1.8a10.35,10.35,0,0,1-2-.21Z"/><path d="M920.07,280a71,71,0,0,1-24.43-4.25A56.31,56.31,0,0,1,875.25,263l5.31-7.22A62,62,0,0,0,899,267.69a56.17,56.17,0,0,0,21,3.82q14.45,0,23.27-6.05a19.37,19.37,0,0,0,8.81-16.89,15.71,15.71,0,0,0-2.23-8.61,17.87,17.87,0,0,0-6.69-5.94,55.4,55.4,0,0,0-11.05-4.36q-6.58-1.91-15.29-4-9.36-2.12-16.25-4.24a43.76,43.76,0,0,1-11.37-5.1,19.58,19.58,0,0,1-6.69-7.23,23.15,23.15,0,0,1-2.23-10.83,31.12,31.12,0,0,1,3.18-14.45,28.59,28.59,0,0,1,8.82-10.19,40.51,40.51,0,0,1,13-6.06,58.82,58.82,0,0,1,15.61-2,57,57,0,0,1,23,4.36q10,4.35,15.51,11.15l-6,5.74a33.74,33.74,0,0,0-14.34-9.56,54.79,54.79,0,0,0-18.8-3.19,50.42,50.42,0,0,0-11.58,1.28,27.93,27.93,0,0,0-9.46,4,19.93,19.93,0,0,0-6.37,7.12,21.46,21.46,0,0,0-2.34,10.3,16.66,16.66,0,0,0,1.6,7.86,13.4,13.4,0,0,0,5.1,5.1,37.25,37.25,0,0,0,9,3.72q5.52,1.59,13.17,3.5,10.39,2.55,18.48,4.89a53.21,53.21,0,0,1,13.49,5.74,25.12,25.12,0,0,1,8.28,8.07q2.88,4.68,2.87,11.9,0,14.87-11.58,23.68T920.07,280Z"/><path d="M1022.26,280a71,71,0,0,1-24.44-4.25A56.4,56.4,0,0,1,977.43,263l5.31-7.22a62,62,0,0,0,18.48,11.9,56.18,56.18,0,0,0,21,3.82q14.45,0,23.26-6.05a19.37,19.37,0,0,0,8.81-16.89,15.71,15.71,0,0,0-2.23-8.61,17.79,17.79,0,0,0-6.69-5.94,55.4,55.4,0,0,0-11.05-4.36q-6.58-1.91-15.29-4-9.35-2.12-16.25-4.24a43.91,43.91,0,0,1-11.37-5.1,19.66,19.66,0,0,1-6.69-7.23,23.15,23.15,0,0,1-2.23-10.83,31,31,0,0,1,3.19-14.45,28.47,28.47,0,0,1,8.81-10.19,40.51,40.51,0,0,1,13-6.06,58.84,58.84,0,0,1,15.62-2,57,57,0,0,1,22.94,4.36q10,4.35,15.51,11.15l-6,5.74a33.68,33.68,0,0,0-14.34-9.56,54.79,54.79,0,0,0-18.8-3.19,50.42,50.42,0,0,0-11.58,1.28,27.88,27.88,0,0,0-9.45,4,19.87,19.87,0,0,0-6.38,7.12,21.46,21.46,0,0,0-2.33,10.3,16.67,16.67,0,0,0,1.59,7.86,13.4,13.4,0,0,0,5.1,5.1,37.42,37.42,0,0,0,9,3.72q5.52,1.59,13.17,3.5,10.41,2.55,18.48,4.89a53.21,53.21,0,0,1,13.49,5.74,25.25,25.25,0,0,1,8.29,8.07q2.86,4.68,2.86,11.9,0,14.87-11.57,23.68T1022.26,280Z"/><rect x="891.25" y="144.51" width="155.7" height="3.49"/><path class="cls-1" d="M941,37.15c-9.65-22.89-34.29-13.4-38.55,2.52-6.26,34.46,9.75,73.28,29.24,105H936c-17.49-27.24-32.63-61.87-27.06-92.24,3.48-13.4,24.28-21.32,32.37-2.09,14.27,34.63,14.1,64.31,15.06,94.33h2.35C957.76,110.51,957.24,76.57,941,37.15Z"/><path class="cls-1" d="M935,28.1C904.5.34,850.72,101.89,897.45,112.42c23,.18,35.33-28.28,37.51-84.32Z"/><path class="cls-1" d="M931.83,25.83C903.81.34,853,95.54,896,105.29c21.15.17,33.86-27.94,35.86-79.46Z"/><path class="cls-1" d="M1045,19c-5-18.71-34-29.85-45.34-2.87-19.49,47.17-19.84,87.72-21,128.53h2.88c1-36,.52-71.53,17.75-113.13,9.48-22.63,33.94-13.31,38.11,2.44,6.62,36.63-12.09,78.32-33.24,110.69h5.22C1033,107,1052.62,60.3,1045,19Z"/><path class="cls-1" d="M1042,24.88c-4.7-17.84-32.46-28.46-43.25-2.79-18.54,44.91-18.89,83.63-20,122.53h2.88c1-36,.52-71.53,17.75-113.13,9.48-22.63,33.94-13.31,38.11,2.44,6.62,36.63-12.09,78.32-33.24,110.69h3.92C1030.51,108.77,1049.22,64.21,1042,24.88Z"/></g></g></svg>